<svg width="12" height="12" viewBox="0 0 12 12" fill="none" xmlns="http://www.w3.org/2000/svg">
<path d="M11 6C11 8.76142 8.76142 11 6 11C3.23858 11 1 8.76142 1 6C1 3.23858 3.23858 1 6 1C8.76142 1 11 3.23858 11 6Z" fill="#1C274C"/>
<path fill-rule="evenodd" clip-rule="evenodd" d="M6 3.625C6.20711 3.625 6.375 3.79289 6.375 4V5.84467L7.51517 6.98483C7.66161 7.13128 7.66161 7.36872 7.51517 7.51517C7.36872 7.66161 7.13128 7.66161 6.98483 7.51517L5.73484 6.26517C5.66451 6.19484 5.625 6.09946 5.625 6V4C5.625 3.79289 5.79289 3.625 6 3.625Z" fill="white"/>
</svg>
