<svg width="165" height="100" viewBox="0 0 165 100" fill="none" xmlns="http://www.w3.org/2000/svg">
<path d="M95 42C95 44.2091 93.2091 46 91 46C88.7909 46 87 44.2091 87 42C87 39.7909 88.7909 38 91 38C93.2091 38 95 39.7909 95 42Z" fill="#1D1B20"/>
<path fill-rule="evenodd" clip-rule="evenodd" d="M82.8852 28.5H83.1148C87.7315 28.5 91.3496 28.5 94.1726 28.8795C97.0621 29.268 99.3421 30.0787 101.132 31.8683C102.921 33.6579 103.732 35.9379 104.121 38.8274C104.5 41.6504 104.5 45.2685 104.5 49.8853V50.0618C104.5 53.8794 104.5 57.0046 104.293 59.5491C104.084 62.1061 103.657 64.2428 102.702 66.0175C102.28 66.8002 101.762 67.5011 101.132 68.1317C99.3421 69.9213 97.0621 70.732 94.1726 71.1205C91.3496 71.5 87.7315 71.5 83.1147 71.5H82.8853C78.2685 71.5 74.6504 71.5 71.8274 71.1205C68.9379 70.732 66.6579 69.9213 64.8683 68.1317C63.2817 66.5452 62.4624 64.5705 62.0267 62.1209C61.5987 59.7145 61.5204 56.7206 61.5041 53.003C61.5 52.0573 61.5 51.0572 61.5 50.002V49.8852C61.5 45.2685 61.5 41.6504 61.8795 38.8274C62.268 35.9379 63.0787 33.6579 64.8683 31.8683C66.6579 30.0787 68.9379 29.268 71.8274 28.8795C74.6504 28.5 78.2685 28.5 82.8852 28.5ZM72.2272 31.8527C69.6703 32.1965 68.1289 32.8503 66.9896 33.9896C65.8503 35.1289 65.1965 36.6703 64.8527 39.2272C64.5032 41.8271 64.5 45.2436 64.5 50C64.5 50.581 64.5 51.1429 64.5007 51.687L66.503 49.935C68.3255 48.3403 71.0723 48.4318 72.7848 50.1442L81.3642 58.7236C82.7387 60.0981 84.9023 60.2855 86.4926 59.1679L87.089 58.7487C89.3775 57.1404 92.4737 57.3268 94.5527 59.1979L100.214 64.2927C100.783 63.096 101.122 61.5236 101.303 59.3054C101.499 56.8965 101.5 53.8917 101.5 50C101.5 45.2436 101.497 41.8271 101.147 39.2272C100.804 36.6703 100.15 35.1289 99.0104 33.9896C97.8711 32.8503 96.3297 32.1965 93.7728 31.8527C91.1729 31.5032 87.7565 31.5 83 31.5C78.2436 31.5 74.8271 31.5032 72.2272 31.8527Z" fill="#1D1B20"/>
</svg>
