<svg width="16" height="16" viewBox="0 0 16 16" fill="none" xmlns="http://www.w3.org/2000/svg">
<g clip-path="url(#clip0_20_65)">
<path fill-rule="evenodd" clip-rule="evenodd" d="M7.52797 2.20539C7.26548 2.54815 6.96919 3.077 6.53883 3.84903L6.32037 4.24094C6.3072 4.26456 6.2942 4.28796 6.28132 4.31113C6.08083 4.67193 5.91162 4.97646 5.63895 5.18345C5.36334 5.39267 5.02736 5.46817 4.63688 5.55593C4.61179 5.56156 4.58647 5.56726 4.56093 5.57303L4.13669 5.66902C3.29981 5.85837 2.73049 5.98866 2.34053 6.14233C1.96 6.2923 1.87967 6.41516 1.84906 6.51362C1.81674 6.61753 1.81578 6.77647 2.04328 7.13786C2.27418 7.50464 2.66371 7.96214 3.23339 8.62832L3.52261 8.96652C3.53941 8.98617 3.55607 9.0056 3.57256 9.02483C3.84123 9.33823 4.06526 9.59955 4.16802 9.93C4.27016 10.2585 4.2363 10.6036 4.19526 11.0221C4.19274 11.0477 4.1902 11.0737 4.18765 11.0999L4.14393 11.5512C4.05787 12.4393 3.99984 13.0508 4.01946 13.4913C4.03905 13.931 4.13192 14.0525 4.20575 14.1086C4.27142 14.1584 4.39282 14.2136 4.7883 14.1003C5.19022 13.9851 5.72438 13.7407 6.508 13.3799L6.9052 13.1971C6.92967 13.1858 6.9539 13.1746 6.97792 13.1635C7.34112 12.9956 7.65621 12.8499 8 12.8499C8.34378 12.8499 8.65887 12.9956 9.02207 13.1635C9.04609 13.1746 9.07032 13.1858 9.09479 13.1971L9.492 13.3799C10.2756 13.7407 10.8098 13.9851 11.2117 14.1003C11.6072 14.2136 11.7286 14.1584 11.7942 14.1086C11.8681 14.0525 11.9609 13.931 11.9805 13.4913C12.0002 13.0508 11.9421 12.4393 11.8561 11.5512L11.8123 11.0999C11.8098 11.0737 11.8073 11.0478 11.8047 11.0221C11.7637 10.6036 11.7298 10.2585 11.832 9.93C11.9347 9.59955 12.1588 9.33823 12.4274 9.02483C12.4439 9.00559 12.4606 8.98617 12.4774 8.96651L12.7666 8.62832C13.3363 7.96214 13.7258 7.50464 13.9567 7.13786C14.1842 6.77647 14.1832 6.61753 14.1509 6.51362C14.1203 6.41516 14.04 6.2923 13.6595 6.14233C13.2695 5.98866 12.7002 5.85837 11.8633 5.66902L11.4391 5.57303C11.4135 5.56725 11.3882 5.56156 11.3631 5.55592C10.9726 5.46817 10.6367 5.39267 10.361 5.18345C10.0884 4.97646 9.91916 4.67193 9.71867 4.31113C9.70579 4.28796 9.69279 4.26456 9.67962 4.24093L9.46116 3.84903C9.0308 3.077 8.73451 2.54815 8.47202 2.20539C8.20978 1.86295 8.07584 1.83333 8 1.83333C7.92415 1.83333 7.79021 1.86295 7.52797 2.20539ZM6.73403 1.59739C7.05181 1.18242 7.44459 0.833328 8 0.833328C8.5554 0.833328 8.94818 1.18242 9.26596 1.59739C9.57822 2.00515 9.90934 2.59917 10.314 3.32517L10.5531 3.75403C10.8148 4.22348 10.8817 4.32321 10.9657 4.38695C11.0465 4.44831 11.1508 4.48253 11.6597 4.59769L12.1264 4.70328C12.9102 4.88058 13.5559 5.02665 14.0261 5.21197C14.5142 5.40434 14.9414 5.68786 15.1058 6.21668C15.2686 6.74004 15.0857 7.22155 14.803 7.6706C14.5283 8.10691 14.0896 8.61989 13.5537 9.24652L13.2374 9.61644C12.8927 10.0195 12.8207 10.1181 12.7869 10.2269C12.7524 10.3379 12.7556 10.4661 12.8077 11.0035L12.8554 11.4956C12.9365 12.3329 13.0027 13.0157 12.9795 13.5358C12.956 14.0651 12.8357 14.5734 12.3989 14.9051C11.9539 15.2429 11.4361 15.2048 10.9362 15.0616C10.4516 14.9227 9.84735 14.6445 9.11366 14.3066L8.67656 14.1054C8.19833 13.8852 8.09595 13.8499 8 13.8499C7.90404 13.8499 7.80166 13.8852 7.32343 14.1054L6.88633 14.3066C6.15264 14.6445 5.54842 14.9227 5.06375 15.0616C4.5639 15.2048 4.04612 15.2429 3.6011 14.9051C3.16425 14.5734 3.04403 14.0651 3.02045 13.5358C2.99729 13.0157 3.06347 12.3329 3.14463 11.4955L3.19232 11.0035C3.24438 10.4661 3.24763 10.3379 3.21312 10.2269C3.17928 10.1181 3.10728 10.0195 2.76261 9.61644L2.44628 9.24654C1.91038 8.61991 1.47167 8.10692 1.197 7.6706C0.914314 7.22155 0.73141 6.74004 0.894162 6.21668C1.05861 5.68786 1.48576 5.40434 1.97389 5.21197C2.44413 5.02666 3.08981 4.88058 3.87357 4.70328L3.91601 4.69367L4.34025 4.59769C4.8492 4.48253 4.95347 4.44831 5.0343 4.38695C5.11827 4.32321 5.18522 4.22348 5.44691 3.75403L5.68598 3.32516C6.09066 2.59917 6.42177 2.00515 6.73403 1.59739Z" fill="#1D1B20"/>
</g>
<defs>
<clipPath id="clip0_20_65">
<rect width="16" height="16" rx="5" fill="white"/>
</clipPath>
</defs>
</svg>
